<svg id="Layer_1" data-name="Layer 1" xmlns="http://www.w3.org/2000/svg" viewBox="0 0 1273 366"><path d="M163,370.2V531.5L193.5,501,224,470.5v-224l18-18c9.9-9.9,18-18.3,18-18.7s-21.8-.8-48.5-.8H163Z" transform="translate(-163 -209)"/><path d="M314.2,240.3,284,270.5V453H467.5L498,422.5,528.5,392H346V301c0-50.1-.3-91-.8-91S330.9,223.6,314.2,240.3Z" transform="translate(-163 -209)"/><path d="M1302,297.4c-45,8.1-73.9,34.6-81,74.2-1.8,10.3-.8,32.8,1.9,42.8a88,88,0,0,0,36.8,50.3c18.7,12.3,37.6,17.4,63.8,17.5,19.3,0,32.5-2.5,47.9-8.8l7.9-3.3,5.5,4.9,5.6,5h22.8c12.8,0,22.8-.4,22.8-.9s-1.7-2.4-3.7-4.1-8.1-7.2-13.3-12-10.6-9.7-12-10.8l-2.4-2,3.1-3.5c7.6-8.7,14.9-24.2,17.9-38.1,2.5-11.6,2-32-1-43.8-8.6-33.6-34.9-57.7-71.9-65.9C1340.8,296.2,1313.1,295.4,1302,297.4Zm43.8,34.4c21.9,5.9,37.4,21.1,42.7,41.7,1.7,6.8,2,20.7.5,28.6-1.1,6.3-8.5,21.8-10.7,22.6-.9.4-3.4-1.3-6.7-4.6l-5.3-5.2-18.9.7c-10.4.3-20.5.9-22.5,1.3l-3.6.6,14.9,13.4c11.1,10.1,14.5,13.7,13.4,14.3-5.9,3.3-30.9,5-41.8,2.7-31.8-6.5-50.8-28.7-50.8-59.2,0-31.2,20.3-53.5,53.5-58.8C1318.6,328.6,1337.7,329.6,1345.8,331.8Z" transform="translate(-163 -209)"/><path d="M591.7,298.7c-.4.3-.7,41.3-.7,91V480H734l-.2-16.3-.3-16.2-52.7-.3L628,447V298H610.2C600.4,298,592,298.3,591.7,298.7Z" transform="translate(-163 -209)"/><path d="M837.1,304.2c-4.4,9.8-42.6,90.8-49.7,105.7-3.5,7.3-6.4,13.5-6.4,13.6s-2.5,5.6-5.6,12.1c-9.6,20.2-20.4,43.5-20.4,44,0,.2,8.7.4,19.4.4h19.3l6.9-15,6.9-14.9,53.1-.1h53.1l7.2,15,7.1,15h19.5c10.7,0,19.5-.2,19.5-.4s-5.9-12.4-13.1-27.2-15.5-31.9-18.4-37.9-9.4-19.6-14.5-30-11.8-24.4-15-31-10.5-21.8-16.3-33.8L879.1,298H840ZM862,341c0,.4,3.6,8.3,8.1,17.6s12.2,25.4,17.1,35.9,9.7,20.2,10.4,21.7l1.5,2.8h-77l4.5-9.8c2.5-5.3,10.9-23.5,18.7-40.4,10.9-23.5,14.5-30.4,15.4-29.6A3.6,3.6,0,0,1,862,341Z" transform="translate(-163 -209)"/><path d="M1004,389v91h37V428h56l17.2,26,17.3,25.9,22.3.1c13.1,0,22.2-.4,22.2-.9s-8.3-13.2-18.5-28.1-18.7-27.5-19-28,3.1-2.8,7.5-5.1c10.7-5.5,20.4-15.2,25.3-25.1,11.2-22.6,8.1-54.1-6.9-71.7-4.2-4.9-15-12.2-22.4-15.1-17.5-7-28.1-8-88.2-8H1004Zm108.2-56.9c8.4,1.8,15,5.2,19.4,10.1,5.4,5.8,6.9,10.4,6.9,20.8,0,7.3-.4,9.3-2.8,14.2-4.4,8.9-11.6,14.2-23.4,17.3-4.5,1.2-12.6,1.5-38.5,1.5H1041V331h33C1094.7,331,1108.9,331.4,1112.2,332.1Z" transform="translate(-163 -209)"/><path d="M509,496l-17.5,16.9L379,513H266.6l-30.3,30.2c-16.7,16.7-30.3,30.6-30.3,31s72.5.8,161,.8H528V527c0-26.4-.3-48-.7-48S518.6,486.7,509,496Z" transform="translate(-163 -209)"/></svg>